:SAMPLES-PER-SECOND 30
:FULLY-SPECIFIED
:DEGREES
227
root  49.8804 39.7646 -23.4051 169.321 -65.7643 -170.799
RightUpLeg  -0.0536874 -13.0649 -4.64653
RightLeg  13.9738 -6.17627 5.24131
RightFoot  -8.88366 -0.261973 9.3735
RightToes  -5.8209e-011 0 -3.6325e-017
Spine  7.84752 1.1867 14.8656
Spine1  5.83768 3.82699 -5.86825
HEad  46.6793 5.09719 -177.503
LeftShoulder1  7.71514 -10.9511 -46.5507
LeftArm  -2.50255 23.9674 -26.7706
LeftForeArm  28.4648 -13.5147 -5.96188
LeftHand  -0.244104 0.0205437 5.32207
RightShoulder  5.577 8.93928 38.7451
RightArm  1.20756 -1.31104 29.6733
RightForeArm  -0.920649 26.5546 5.73988
RightHand  -0.358542 -2.12623 -12.5358
LeftUpLeg  -22.0036 8.01456 1.79921
LeftLeg  58.1358 0.719278 1.78194
LeftFoot  0.452551 0.102004 -1.0067
LeftToes  1.76439e-010 -1.07097e-011 2.32476e-011
228
root  49.0332 39.8692 -24.2655 170.096 -67.1872 -171.612
RightUpLeg  3.19236 -11.4239 -4.86366
RightLeg  11.4001 -8.55304 5.60663
RightFoot  -9.7884 -0.201224 9.89939
RightToes  -5.8209e-011 0 -3.6325e-017
Spine  7.47753 1.58772 14.8178
Spine1  6.45751 4.34392 -6.90612
HEad  47.7479 5.16225 -177.918
LeftShoulder1  7.79399 -11.0801 -46.6131
LeftArm  -4.79005 25.3734 -25.7483
LeftForeArm  29.1465 -10.7063 -6.26351
LeftHand  -0.244104 0.0205437 5.32207
RightShoulder  5.51951 8.8961 38.4503
RightArm  -0.385412 0.258896 29.6451
RightForeArm  0.718599 30.3817 6.59798
RightHand  -0.355703 -2.11095 -12.3671
LeftUpLeg  -24.3158 11.3516 -0.715847
LeftLeg  51.7721 0.672734 1.35008
LeftFoot  -1.48558 0.068436 -0.6793
LeftToes  1.76439e-010 -1.07097e-011 2.32476e-011
229
root  48.1648 39.8712 -25.0819 170.555 -68.6422 -171.84
RightUpLeg  5.88558 -10.7165 -4.50142
RightLeg  9.40356 -10.2817 5.62724
RightFoot  -10.7036 -0.128777 9.94848
RightToes  -5.8209e-011 0 -3.6325e-017
Spine  7.07223 1.86422 14.8216
Spine1  6.86986 4.68592 -7.78816
HEad  48.757 5.12162 -178.182
LeftShoulder1  7.83489 -11.1706 -46.5686
LeftArm  -6.10794 26.7558 -25.0736
LeftForeArm  28.807 -8.48755 -6.15094
LeftHand  -0.244104 0.0205437 5.32207
RightShoulder  5.49556 8.8926 38.2767
RightArm  -1.73238 1.42952 29.4897
RightForeArm  2.37318 33.9998 7.45494
RightHand  -0.310423 -2.36724 -11.6368
LeftUpLeg  -25.84 15.582 -3.64851
LeftLeg  43.205 1.15264 1.55199
LeftFoot  -3.17063 0.0343402 -0.234116
LeftToes  1.76439e-010 -1.07097e-011 2.32476e-011
230
root  47.2472 39.799 -25.8538 170.023 -69.986 -171.155
RightUpLeg  8.41753 -10.168 -3.63932
RightLeg  7.94147 -12.0473 5.39585
RightFoot  -11.4163 -0.0716985 9.4669
RightToes  -5.8209e-011 0 -3.6325e-017
Spine  7.01557 1.96953 15.0917
Spine1  6.94399 4.89438 -8.58662
HEad  49.7662 5.18382 -178.19
LeftShoulder1  7.76329 -11.1365 -46.2411
LeftArm  -6.68299 28.2862 -24.9282
LeftForeArm  28.0603 -7.22862 -5.86222
LeftHand  -0.244104 0.0205437 5.32207
RightShoulder  5.45897 8.85346 38.1271
RightArm  -2.47333 2.30936 29.3954
RightForeArm  3.42531 36.8303 8.19864
RightHand  -0.280467 -2.53337 -11.0709
LeftUpLeg  -26.2062 21.0248 -7.08648
LeftLeg  32.5011 0.947724 1.17701
LeftFoot  -3.75691 0.0345402 -0.249818
LeftToes  1.76439e-010 -1.07097e-011 2.32476e-011
231
root  46.2628 39.6807 -26.5775 168.959 -71.0257 -170.338
RightUpLeg  11.3878 -9.6766 -2.93336
RightLeg  6.557 -13.408 5.39045
RightFoot  -12.264 -0.00860059 9.20417
RightToes  -5.8209e-011 0 -3.6325e-017
Spine  7.29521 1.96667 15.3062
Spine1  7.17815 5.0972 -9.34629
HEad  50.902 5.12776 -178.125
LeftShoulder1  7.63891 -11.0267 -45.8317
LeftArm  -7.11965 29.9035 -25.1398
LeftForeArm  27.3913 -6.9902 -5.62879
LeftHand  -0.244104 0.0205437 5.32207
RightShoulder  5.45607 8.85836 38.0876
RightArm  -2.46938 3.17957 29.2722
RightForeArm  4.09368 38.4408 8.64649
RightHand  -0.281312 -2.46198 -10.8373
LeftUpLeg  -25.2107 27.0686 -10.6589
LeftLeg  20.6574 0.864974 0.155093
LeftFoot  -3.29534 0.0416541 -0.348393
LeftToes  1.76439e-010 -1.07097e-011 2.32476e-011
232
root  45.1809 39.4727 -27.271 167.808 -72.037 -169.517
RightUpLeg  14.2547 -9.60234 -2.68805
RightLeg  6.0233 -13.9756 5.71494
RightFoot  -13.57 0.0950716 9.60112
RightToes  -5.8209e-011 0 -3.6325e-017
Spine  7.29512 1.90179 15.2377
Spine1  7.79891 5.21458 -9.77236
HEad  51.9183 4.77373 -178.026
LeftShoulder1  7.55872 -10.9548 -45.5669
LeftArm  -7.51763 31.4213 -25.5004
LeftForeArm  26.7765 -7.37412 -5.49699
LeftHand  -0.244104 0.0205437 5.32207
RightShoulder  5.51934 8.96509 38.2123
RightArm  -1.88362 3.98188 29.1149
RightForeArm  4.76946 38.6476 8.67067
RightHand  -0.272403 -2.48996 -10.5726
LeftUpLeg  -21.9378 23.4911 -9.54093
LeftLeg  9.27391 11.3221 -3.54108
LeftFoot  -2.90316 0.0258568 -0.107352
LeftToes  1.76439e-010 -1.07097e-011 2.32476e-011
233
root  43.9568 39.1828 -27.959 165.812 -73.1025 -167.576
RightUpLeg  16.3875 -9.84959 -2.40244
RightLeg  7.01519 -14.2016 5.96951
RightFoot  -14.6636 0.18698 9.8806
RightToes  -5.8209e-011 0 -3.6325e-017
Spine  6.55199 1.91765 15.2176
Spine1  8.47519 5.23111 -9.86047
HEad  52.3075 4.64031 -177.663
LeftShoulder1  7.49771 -10.9233 -45.2874
LeftArm  -7.8239 32.6664 -26.0087
LeftForeArm  26.337 -7.78528 -5.4226
LeftHand  -0.244104 0.0205437 5.32207
RightShoulder  5.59226 9.0702 38.4142
RightArm  -0.83404 4.25807 29.1737
RightForeArm  5.18697 37.4434 8.27789
RightHand  -0.246716 -2.71691 -10.3165
LeftUpLeg  -17.3202 5.64125 -2.56457
LeftLeg  -1.14258 34.0623 -10.8992
LeftFoot  -3.56708 0.00698634 0.198727
LeftToes  1.76439e-010 -1.07097e-011 2.32476e-011
